G04 #@! TF.GenerationSoftware,KiCad,Pcbnew,(5.1.10)-1*
G04 #@! TF.CreationDate,2023-08-30T00:20:36+03:00*
G04 #@! TF.ProjectId,mini_cc_drive,6d696e69-5f63-4635-9f64-726976652e6b,rev?*
G04 #@! TF.SameCoordinates,Original*
G04 #@! TF.FileFunction,Legend,Bot*
G04 #@! TF.FilePolarity,Positive*
%FSLAX46Y46*%
G04 Gerber Fmt 4.6, Leading zero omitted, Abs format (unit mm)*
G04 Created by KiCad (PCBNEW (5.1.10)-1) date 2023-08-30 00:20:36*
%MOMM*%
%LPD*%
G01*
G04 APERTURE LIST*
%ADD10C,0.120000*%
%ADD11C,0.140000*%
%ADD12C,0.010000*%
%ADD13R,1.700000X1.700000*%
G04 APERTURE END LIST*
D10*
X153004666Y-78539190D02*
X153099904Y-78539190D01*
X153147523Y-78563000D01*
X153171333Y-78586809D01*
X153218952Y-78658238D01*
X153242761Y-78753476D01*
X153242761Y-78943952D01*
X153218952Y-78991571D01*
X153195142Y-79015380D01*
X153147523Y-79039190D01*
X153052285Y-79039190D01*
X153004666Y-79015380D01*
X152980857Y-78991571D01*
X152957047Y-78943952D01*
X152957047Y-78824904D01*
X152980857Y-78777285D01*
X153004666Y-78753476D01*
X153052285Y-78729666D01*
X153147523Y-78729666D01*
X153195142Y-78753476D01*
X153218952Y-78777285D01*
X153242761Y-78824904D01*
X152814190Y-78539190D02*
X152647523Y-79039190D01*
X152480857Y-78539190D01*
X151933238Y-79039190D02*
X151933238Y-78705857D01*
X151933238Y-78539190D02*
X151957047Y-78563000D01*
X151933238Y-78586809D01*
X151909428Y-78563000D01*
X151933238Y-78539190D01*
X151933238Y-78586809D01*
X151695142Y-78705857D02*
X151695142Y-79039190D01*
X151695142Y-78753476D02*
X151671333Y-78729666D01*
X151623714Y-78705857D01*
X151552285Y-78705857D01*
X151504666Y-78729666D01*
X151480857Y-78777285D01*
X151480857Y-79039190D01*
X150861809Y-79039190D02*
X150861809Y-78539190D01*
X150695142Y-78896333D01*
X150528476Y-78539190D01*
X150528476Y-79039190D01*
X150314190Y-78896333D02*
X150076095Y-78896333D01*
X150361809Y-79039190D02*
X150195142Y-78539190D01*
X150028476Y-79039190D01*
X149909428Y-78539190D02*
X149576095Y-79039190D01*
X149576095Y-78539190D02*
X149909428Y-79039190D01*
X152957047Y-79909190D02*
X153242761Y-79909190D01*
X153099904Y-79909190D02*
X153099904Y-79409190D01*
X153147523Y-79480619D01*
X153195142Y-79528238D01*
X153242761Y-79552047D01*
X152766571Y-79766333D02*
X152528476Y-79766333D01*
X152814190Y-79909190D02*
X152647523Y-79409190D01*
X152480857Y-79909190D01*
X151861809Y-79909190D02*
X151909428Y-79885380D01*
X151933238Y-79861571D01*
X151957047Y-79813952D01*
X151957047Y-79671095D01*
X151933238Y-79623476D01*
X151909428Y-79599666D01*
X151861809Y-79575857D01*
X151790380Y-79575857D01*
X151742761Y-79599666D01*
X151718952Y-79623476D01*
X151695142Y-79671095D01*
X151695142Y-79813952D01*
X151718952Y-79861571D01*
X151742761Y-79885380D01*
X151790380Y-79909190D01*
X151861809Y-79909190D01*
X151266571Y-79575857D02*
X151266571Y-79909190D01*
X151480857Y-79575857D02*
X151480857Y-79837761D01*
X151457047Y-79885380D01*
X151409428Y-79909190D01*
X151338000Y-79909190D01*
X151290380Y-79885380D01*
X151266571Y-79861571D01*
X151099904Y-79575857D02*
X150909428Y-79575857D01*
X151028476Y-79409190D02*
X151028476Y-79837761D01*
X151004666Y-79885380D01*
X150957047Y-79909190D01*
X150909428Y-79909190D01*
X150361809Y-79909190D02*
X150361809Y-79409190D01*
X150195142Y-79766333D01*
X150028476Y-79409190D01*
X150028476Y-79909190D01*
X149814190Y-79766333D02*
X149576095Y-79766333D01*
X149861809Y-79909190D02*
X149695142Y-79409190D01*
X149528476Y-79909190D01*
X149409428Y-79409190D02*
X149076095Y-79909190D01*
X149076095Y-79409190D02*
X149409428Y-79909190D01*
D11*
X156817523Y-75510904D02*
X156817523Y-74977571D01*
X156817523Y-75053761D02*
X156779428Y-75015666D01*
X156703238Y-74977571D01*
X156588952Y-74977571D01*
X156512761Y-75015666D01*
X156474666Y-75091857D01*
X156474666Y-75510904D01*
X156474666Y-75091857D02*
X156436571Y-75015666D01*
X156360380Y-74977571D01*
X156246095Y-74977571D01*
X156169904Y-75015666D01*
X156131809Y-75091857D01*
X156131809Y-75510904D01*
X155750857Y-75510904D02*
X155750857Y-74977571D01*
X155750857Y-74710904D02*
X155788952Y-74749000D01*
X155750857Y-74787095D01*
X155712761Y-74749000D01*
X155750857Y-74710904D01*
X155750857Y-74787095D01*
X155369904Y-74977571D02*
X155369904Y-75510904D01*
X155369904Y-75053761D02*
X155331809Y-75015666D01*
X155255619Y-74977571D01*
X155141333Y-74977571D01*
X155065142Y-75015666D01*
X155027047Y-75091857D01*
X155027047Y-75510904D01*
X154646095Y-75510904D02*
X154646095Y-74977571D01*
X154646095Y-74710904D02*
X154684190Y-74749000D01*
X154646095Y-74787095D01*
X154608000Y-74749000D01*
X154646095Y-74710904D01*
X154646095Y-74787095D01*
X154265142Y-75206142D02*
X153655619Y-75206142D01*
X152931809Y-75472809D02*
X153008000Y-75510904D01*
X153160380Y-75510904D01*
X153236571Y-75472809D01*
X153274666Y-75434714D01*
X153312761Y-75358523D01*
X153312761Y-75129952D01*
X153274666Y-75053761D01*
X153236571Y-75015666D01*
X153160380Y-74977571D01*
X153008000Y-74977571D01*
X152931809Y-75015666D01*
X152246095Y-75472809D02*
X152322285Y-75510904D01*
X152474666Y-75510904D01*
X152550857Y-75472809D01*
X152588952Y-75434714D01*
X152627047Y-75358523D01*
X152627047Y-75129952D01*
X152588952Y-75053761D01*
X152550857Y-75015666D01*
X152474666Y-74977571D01*
X152322285Y-74977571D01*
X152246095Y-75015666D01*
X150950857Y-75510904D02*
X150950857Y-74710904D01*
X150950857Y-75472809D02*
X151027047Y-75510904D01*
X151179428Y-75510904D01*
X151255619Y-75472809D01*
X151293714Y-75434714D01*
X151331809Y-75358523D01*
X151331809Y-75129952D01*
X151293714Y-75053761D01*
X151255619Y-75015666D01*
X151179428Y-74977571D01*
X151027047Y-74977571D01*
X150950857Y-75015666D01*
X150569904Y-75510904D02*
X150569904Y-74977571D01*
X150569904Y-75129952D02*
X150531809Y-75053761D01*
X150493714Y-75015666D01*
X150417523Y-74977571D01*
X150341333Y-74977571D01*
X150074666Y-75510904D02*
X150074666Y-74977571D01*
X150074666Y-74710904D02*
X150112761Y-74749000D01*
X150074666Y-74787095D01*
X150036571Y-74749000D01*
X150074666Y-74710904D01*
X150074666Y-74787095D01*
X149769904Y-74977571D02*
X149579428Y-75510904D01*
X149388952Y-74977571D01*
X148779428Y-75472809D02*
X148855619Y-75510904D01*
X149008000Y-75510904D01*
X149084190Y-75472809D01*
X149122285Y-75396619D01*
X149122285Y-75091857D01*
X149084190Y-75015666D01*
X149008000Y-74977571D01*
X148855619Y-74977571D01*
X148779428Y-75015666D01*
X148741333Y-75091857D01*
X148741333Y-75168047D01*
X149122285Y-75244238D01*
X156893714Y-76317571D02*
X156703238Y-76850904D01*
X156512761Y-76317571D01*
X156246095Y-76127095D02*
X156208000Y-76089000D01*
X156131809Y-76050904D01*
X155941333Y-76050904D01*
X155865142Y-76089000D01*
X155827047Y-76127095D01*
X155788952Y-76203285D01*
X155788952Y-76279476D01*
X155827047Y-76393761D01*
X156284190Y-76850904D01*
X155788952Y-76850904D01*
X155446095Y-76774714D02*
X155408000Y-76812809D01*
X155446095Y-76850904D01*
X155484190Y-76812809D01*
X155446095Y-76774714D01*
X155446095Y-76850904D01*
X154912761Y-76050904D02*
X154836571Y-76050904D01*
X154760380Y-76089000D01*
X154722285Y-76127095D01*
X154684190Y-76203285D01*
X154646095Y-76355666D01*
X154646095Y-76546142D01*
X154684190Y-76698523D01*
X154722285Y-76774714D01*
X154760380Y-76812809D01*
X154836571Y-76850904D01*
X154912761Y-76850904D01*
X154988952Y-76812809D01*
X155027047Y-76774714D01*
X155065142Y-76698523D01*
X155103238Y-76546142D01*
X155103238Y-76355666D01*
X155065142Y-76203285D01*
X155027047Y-76127095D01*
X154988952Y-76089000D01*
X154912761Y-76050904D01*
X156728666Y-70151571D02*
X156728666Y-70799190D01*
X156766761Y-70875380D01*
X156804857Y-70913476D01*
X156881047Y-70951571D01*
X156995333Y-70951571D01*
X157071523Y-70913476D01*
X156728666Y-70646809D02*
X156804857Y-70684904D01*
X156957238Y-70684904D01*
X157033428Y-70646809D01*
X157071523Y-70608714D01*
X157109619Y-70532523D01*
X157109619Y-70303952D01*
X157071523Y-70227761D01*
X157033428Y-70189666D01*
X156957238Y-70151571D01*
X156804857Y-70151571D01*
X156728666Y-70189666D01*
X156347714Y-70684904D02*
X156347714Y-70151571D01*
X156347714Y-69884904D02*
X156385809Y-69923000D01*
X156347714Y-69961095D01*
X156309619Y-69923000D01*
X156347714Y-69884904D01*
X156347714Y-69961095D01*
X156081047Y-70151571D02*
X155776285Y-70151571D01*
X155966761Y-69884904D02*
X155966761Y-70570619D01*
X155928666Y-70646809D01*
X155852476Y-70684904D01*
X155776285Y-70684904D01*
X155509619Y-70684904D02*
X155509619Y-69884904D01*
X155166761Y-70684904D02*
X155166761Y-70265857D01*
X155204857Y-70189666D01*
X155281047Y-70151571D01*
X155395333Y-70151571D01*
X155471523Y-70189666D01*
X155509619Y-70227761D01*
X154442952Y-70151571D02*
X154442952Y-70684904D01*
X154785809Y-70151571D02*
X154785809Y-70570619D01*
X154747714Y-70646809D01*
X154671523Y-70684904D01*
X154557238Y-70684904D01*
X154481047Y-70646809D01*
X154442952Y-70608714D01*
X154062000Y-70684904D02*
X154062000Y-69884904D01*
X154062000Y-70189666D02*
X153985809Y-70151571D01*
X153833428Y-70151571D01*
X153757238Y-70189666D01*
X153719142Y-70227761D01*
X153681047Y-70303952D01*
X153681047Y-70532523D01*
X153719142Y-70608714D01*
X153757238Y-70646809D01*
X153833428Y-70684904D01*
X153985809Y-70684904D01*
X154062000Y-70646809D01*
X153338190Y-70608714D02*
X153300095Y-70646809D01*
X153338190Y-70684904D01*
X153376285Y-70646809D01*
X153338190Y-70608714D01*
X153338190Y-70684904D01*
X152614380Y-70646809D02*
X152690571Y-70684904D01*
X152842952Y-70684904D01*
X152919142Y-70646809D01*
X152957238Y-70608714D01*
X152995333Y-70532523D01*
X152995333Y-70303952D01*
X152957238Y-70227761D01*
X152919142Y-70189666D01*
X152842952Y-70151571D01*
X152690571Y-70151571D01*
X152614380Y-70189666D01*
X152157238Y-70684904D02*
X152233428Y-70646809D01*
X152271523Y-70608714D01*
X152309619Y-70532523D01*
X152309619Y-70303952D01*
X152271523Y-70227761D01*
X152233428Y-70189666D01*
X152157238Y-70151571D01*
X152042952Y-70151571D01*
X151966761Y-70189666D01*
X151928666Y-70227761D01*
X151890571Y-70303952D01*
X151890571Y-70532523D01*
X151928666Y-70608714D01*
X151966761Y-70646809D01*
X152042952Y-70684904D01*
X152157238Y-70684904D01*
X151547714Y-70684904D02*
X151547714Y-70151571D01*
X151547714Y-70227761D02*
X151509619Y-70189666D01*
X151433428Y-70151571D01*
X151319142Y-70151571D01*
X151242952Y-70189666D01*
X151204857Y-70265857D01*
X151204857Y-70684904D01*
X151204857Y-70265857D02*
X151166761Y-70189666D01*
X151090571Y-70151571D01*
X150976285Y-70151571D01*
X150900095Y-70189666D01*
X150862000Y-70265857D01*
X150862000Y-70684904D01*
X149909619Y-69846809D02*
X150595333Y-70875380D01*
X157147714Y-71491571D02*
X156957238Y-72024904D01*
X156766761Y-71491571D02*
X156957238Y-72024904D01*
X157033428Y-72215380D01*
X157071523Y-72253476D01*
X157147714Y-72291571D01*
X156462000Y-72024904D02*
X156462000Y-71491571D01*
X156462000Y-71224904D02*
X156500095Y-71263000D01*
X156462000Y-71301095D01*
X156423904Y-71263000D01*
X156462000Y-71224904D01*
X156462000Y-71301095D01*
X155738190Y-72024904D02*
X155738190Y-71605857D01*
X155776285Y-71529666D01*
X155852476Y-71491571D01*
X156004857Y-71491571D01*
X156081047Y-71529666D01*
X155738190Y-71986809D02*
X155814380Y-72024904D01*
X156004857Y-72024904D01*
X156081047Y-71986809D01*
X156119142Y-71910619D01*
X156119142Y-71834428D01*
X156081047Y-71758238D01*
X156004857Y-71720142D01*
X155814380Y-71720142D01*
X155738190Y-71682047D01*
X155357238Y-72024904D02*
X155357238Y-71224904D01*
X155281047Y-71720142D02*
X155052476Y-72024904D01*
X155052476Y-71491571D02*
X155357238Y-71796333D01*
X154595333Y-72024904D02*
X154671523Y-71986809D01*
X154709619Y-71948714D01*
X154747714Y-71872523D01*
X154747714Y-71643952D01*
X154709619Y-71567761D01*
X154671523Y-71529666D01*
X154595333Y-71491571D01*
X154481047Y-71491571D01*
X154404857Y-71529666D01*
X154366761Y-71567761D01*
X154328666Y-71643952D01*
X154328666Y-71872523D01*
X154366761Y-71948714D01*
X154404857Y-71986809D01*
X154481047Y-72024904D01*
X154595333Y-72024904D01*
X153985809Y-71491571D02*
X153985809Y-72024904D01*
X153985809Y-71567761D02*
X153947714Y-71529666D01*
X153871523Y-71491571D01*
X153757238Y-71491571D01*
X153681047Y-71529666D01*
X153642952Y-71605857D01*
X153642952Y-72024904D01*
X152919142Y-72024904D02*
X152919142Y-71605857D01*
X152957238Y-71529666D01*
X153033428Y-71491571D01*
X153185809Y-71491571D01*
X153262000Y-71529666D01*
X152919142Y-71986809D02*
X152995333Y-72024904D01*
X153185809Y-72024904D01*
X153262000Y-71986809D01*
X153300095Y-71910619D01*
X153300095Y-71834428D01*
X153262000Y-71758238D01*
X153185809Y-71720142D01*
X152995333Y-71720142D01*
X152919142Y-71682047D01*
X152423904Y-72024904D02*
X152500095Y-71986809D01*
X152538190Y-71910619D01*
X152538190Y-71224904D01*
X151814380Y-71986809D02*
X151890571Y-72024904D01*
X152042952Y-72024904D01*
X152119142Y-71986809D01*
X152157238Y-71910619D01*
X152157238Y-71605857D01*
X152119142Y-71529666D01*
X152042952Y-71491571D01*
X151890571Y-71491571D01*
X151814380Y-71529666D01*
X151776285Y-71605857D01*
X151776285Y-71682047D01*
X152157238Y-71758238D01*
D12*
G36*
X146546285Y-69998367D02*
G01*
X146518450Y-69998588D01*
X146492125Y-69998991D01*
X146468275Y-69999576D01*
X146447863Y-70000342D01*
X146431856Y-70001287D01*
X146421217Y-70002410D01*
X146416957Y-70003647D01*
X146415418Y-70008197D01*
X146412758Y-70019088D01*
X146409145Y-70035519D01*
X146404742Y-70056687D01*
X146399717Y-70081792D01*
X146394235Y-70110032D01*
X146388461Y-70140605D01*
X146387110Y-70147883D01*
X146379613Y-70187848D01*
X146373187Y-70220939D01*
X146367767Y-70247450D01*
X146363289Y-70267675D01*
X146359690Y-70281907D01*
X146356904Y-70290441D01*
X146355333Y-70293255D01*
X146350656Y-70296004D01*
X146340296Y-70300980D01*
X146325318Y-70307738D01*
X146306786Y-70315836D01*
X146285766Y-70324831D01*
X146263323Y-70334279D01*
X146240523Y-70343737D01*
X146218429Y-70352762D01*
X146198107Y-70360910D01*
X146180622Y-70367740D01*
X146167039Y-70372807D01*
X146158424Y-70375668D01*
X146156122Y-70376143D01*
X146152123Y-70374152D01*
X146142823Y-70368470D01*
X146128889Y-70359537D01*
X146110987Y-70347791D01*
X146089786Y-70333672D01*
X146065953Y-70317618D01*
X146040153Y-70300068D01*
X146031647Y-70294247D01*
X145997384Y-70270900D01*
X145968806Y-70251732D01*
X145945747Y-70236639D01*
X145928036Y-70225511D01*
X145915506Y-70218242D01*
X145907987Y-70214726D01*
X145905726Y-70214396D01*
X145901501Y-70217451D01*
X145893007Y-70224978D01*
X145880919Y-70236296D01*
X145865914Y-70250724D01*
X145848669Y-70267580D01*
X145829860Y-70286183D01*
X145810163Y-70305853D01*
X145790253Y-70325907D01*
X145770809Y-70345665D01*
X145752505Y-70364445D01*
X145736019Y-70381566D01*
X145722026Y-70396347D01*
X145711202Y-70408108D01*
X145704225Y-70416165D01*
X145701770Y-70419838D01*
X145703791Y-70423916D01*
X145709504Y-70433276D01*
X145718461Y-70447238D01*
X145730215Y-70465123D01*
X145744320Y-70486253D01*
X145760327Y-70509947D01*
X145777790Y-70535526D01*
X145781599Y-70541071D01*
X145799317Y-70566999D01*
X145815667Y-70591226D01*
X145830201Y-70613067D01*
X145842471Y-70631837D01*
X145852031Y-70646848D01*
X145858432Y-70657416D01*
X145861227Y-70662854D01*
X145861314Y-70663274D01*
X145859901Y-70668353D01*
X145855959Y-70679016D01*
X145849932Y-70694230D01*
X145842264Y-70712958D01*
X145833402Y-70734166D01*
X145823789Y-70756819D01*
X145813870Y-70779882D01*
X145804090Y-70802320D01*
X145794893Y-70823098D01*
X145786725Y-70841181D01*
X145780030Y-70855533D01*
X145775252Y-70865121D01*
X145773011Y-70868773D01*
X145768358Y-70870580D01*
X145757290Y-70873493D01*
X145740538Y-70877356D01*
X145718834Y-70882011D01*
X145692908Y-70887301D01*
X145663492Y-70893070D01*
X145632705Y-70898901D01*
X145602161Y-70904672D01*
X145573772Y-70910190D01*
X145548352Y-70915286D01*
X145526714Y-70919788D01*
X145509672Y-70923527D01*
X145498041Y-70926334D01*
X145492634Y-70928039D01*
X145492434Y-70928167D01*
X145491145Y-70932777D01*
X145490032Y-70943678D01*
X145489097Y-70959903D01*
X145488342Y-70980490D01*
X145487767Y-71004471D01*
X145487373Y-71030884D01*
X145487162Y-71058763D01*
X145487134Y-71087143D01*
X145487291Y-71115060D01*
X145487633Y-71141548D01*
X145488163Y-71165643D01*
X145488880Y-71186379D01*
X145489786Y-71202793D01*
X145490882Y-71213920D01*
X145492107Y-71218722D01*
X145495922Y-71220842D01*
X145504758Y-71223629D01*
X145518986Y-71227164D01*
X145538974Y-71231528D01*
X145565092Y-71236804D01*
X145597710Y-71243071D01*
X145629086Y-71248920D01*
X145659260Y-71254553D01*
X145687248Y-71259908D01*
X145712229Y-71264817D01*
X145733386Y-71269114D01*
X145749899Y-71272633D01*
X145760950Y-71275206D01*
X145765718Y-71276669D01*
X145765778Y-71276710D01*
X145768142Y-71280820D01*
X145772716Y-71290701D01*
X145779098Y-71305355D01*
X145786884Y-71323784D01*
X145795673Y-71344989D01*
X145805063Y-71367970D01*
X145814652Y-71391728D01*
X145824037Y-71415266D01*
X145832816Y-71437583D01*
X145840588Y-71457681D01*
X145846949Y-71474562D01*
X145851498Y-71487226D01*
X145853833Y-71494674D01*
X145854057Y-71495979D01*
X145852065Y-71500226D01*
X145846396Y-71509725D01*
X145837511Y-71523769D01*
X145825871Y-71541650D01*
X145811938Y-71562658D01*
X145796172Y-71586085D01*
X145779394Y-71610698D01*
X145762215Y-71635812D01*
X145746316Y-71659174D01*
X145732173Y-71680078D01*
X145720261Y-71697816D01*
X145711055Y-71711682D01*
X145705029Y-71720969D01*
X145702669Y-71724940D01*
X145704631Y-71728779D01*
X145711182Y-71736949D01*
X145721654Y-71748781D01*
X145735379Y-71763606D01*
X145751687Y-71780754D01*
X145769909Y-71799555D01*
X145789377Y-71819339D01*
X145809422Y-71839437D01*
X145829376Y-71859180D01*
X145848568Y-71877897D01*
X145866331Y-71894920D01*
X145881995Y-71909578D01*
X145894892Y-71921201D01*
X145904354Y-71929122D01*
X145909710Y-71932668D01*
X145910276Y-71932795D01*
X145915179Y-71930797D01*
X145925114Y-71925182D01*
X145939181Y-71916517D01*
X145956480Y-71905365D01*
X145976113Y-71892292D01*
X145991943Y-71881487D01*
X146014906Y-71865681D01*
X146038146Y-71849745D01*
X146060270Y-71834626D01*
X146079890Y-71821274D01*
X146095613Y-71810640D01*
X146101460Y-71806717D01*
X146136592Y-71783251D01*
X146191135Y-71811761D01*
X146211300Y-71822208D01*
X146226061Y-71829553D01*
X146236386Y-71834170D01*
X146243241Y-71836431D01*
X146247595Y-71836708D01*
X146250416Y-71835376D01*
X146251001Y-71834829D01*
X146253361Y-71830509D01*
X146258163Y-71820137D01*
X146265130Y-71804386D01*
X146273983Y-71783925D01*
X146284446Y-71759429D01*
X146296239Y-71731567D01*
X146309085Y-71701013D01*
X146322707Y-71668437D01*
X146336826Y-71634512D01*
X146351165Y-71599910D01*
X146365446Y-71565302D01*
X146379391Y-71531360D01*
X146392722Y-71498756D01*
X146405161Y-71468163D01*
X146416430Y-71440250D01*
X146426253Y-71415692D01*
X146434350Y-71395158D01*
X146440444Y-71379322D01*
X146444257Y-71368854D01*
X146445514Y-71364482D01*
X146443271Y-71359178D01*
X146436104Y-71352140D01*
X146423359Y-71342782D01*
X146415579Y-71337624D01*
X146400897Y-71327100D01*
X146383547Y-71313125D01*
X146365778Y-71297585D01*
X146350982Y-71283511D01*
X146335760Y-71267923D01*
X146324451Y-71255190D01*
X146315579Y-71243302D01*
X146307672Y-71230249D01*
X146299257Y-71214021D01*
X146297627Y-71210714D01*
X146285550Y-71184828D01*
X146276937Y-71162643D01*
X146271239Y-71141818D01*
X146267906Y-71120009D01*
X146266388Y-71094873D01*
X146266116Y-71076457D01*
X146266267Y-71054085D01*
X146267049Y-71036834D01*
X146268685Y-71022580D01*
X146271398Y-71009197D01*
X146274275Y-70998443D01*
X146290628Y-70954065D01*
X146312886Y-70913519D01*
X146340579Y-70877266D01*
X146373239Y-70845766D01*
X146410398Y-70819479D01*
X146451586Y-70798864D01*
X146490871Y-70785761D01*
X146519824Y-70780394D01*
X146552500Y-70777975D01*
X146586067Y-70778502D01*
X146617692Y-70781974D01*
X146636014Y-70785848D01*
X146678877Y-70800703D01*
X146718316Y-70821326D01*
X146753896Y-70847089D01*
X146785184Y-70877360D01*
X146811744Y-70911509D01*
X146833143Y-70948907D01*
X146848946Y-70988923D01*
X146858719Y-71030926D01*
X146862027Y-71074287D01*
X146859625Y-71110302D01*
X146850593Y-71155644D01*
X146835854Y-71197194D01*
X146815127Y-71235399D01*
X146788128Y-71270706D01*
X146754577Y-71303565D01*
X146721286Y-71329484D01*
X146706706Y-71340010D01*
X146694287Y-71349353D01*
X146685249Y-71356569D01*
X146680811Y-71360713D01*
X146680644Y-71360961D01*
X146680154Y-71361878D01*
X146679871Y-71363027D01*
X146679968Y-71364845D01*
X146680620Y-71367769D01*
X146681998Y-71372236D01*
X146684276Y-71378685D01*
X146687628Y-71387551D01*
X146692228Y-71399274D01*
X146698247Y-71414289D01*
X146705860Y-71433034D01*
X146715241Y-71455948D01*
X146726561Y-71483466D01*
X146739996Y-71516027D01*
X146755717Y-71554068D01*
X146773899Y-71598026D01*
X146790429Y-71637980D01*
X146810166Y-71685485D01*
X146827315Y-71726325D01*
X146841917Y-71760597D01*
X146854017Y-71788399D01*
X146863657Y-71809830D01*
X146870881Y-71824987D01*
X146875732Y-71833969D01*
X146878097Y-71836850D01*
X146883759Y-71835922D01*
X146894755Y-71831650D01*
X146910197Y-71824425D01*
X146929197Y-71814639D01*
X146932525Y-71812852D01*
X146949962Y-71803705D01*
X146965657Y-71795959D01*
X146978279Y-71790235D01*
X146986498Y-71787153D01*
X146988412Y-71786794D01*
X146993105Y-71788783D01*
X147003016Y-71794460D01*
X147017411Y-71803355D01*
X147035559Y-71814999D01*
X147056727Y-71828924D01*
X147080185Y-71844660D01*
X147102346Y-71859775D01*
X147127221Y-71876728D01*
X147150456Y-71892288D01*
X147171319Y-71905986D01*
X147189077Y-71917353D01*
X147203000Y-71925919D01*
X147212356Y-71931216D01*
X147216244Y-71932800D01*
X147220960Y-71930351D01*
X147230214Y-71922957D01*
X147244081Y-71910546D01*
X147262636Y-71893050D01*
X147285957Y-71870396D01*
X147314119Y-71842514D01*
X147322746Y-71833897D01*
X147352023Y-71804406D01*
X147376242Y-71779578D01*
X147395352Y-71759467D01*
X147409304Y-71744128D01*
X147418048Y-71733613D01*
X147421534Y-71727976D01*
X147421600Y-71727535D01*
X147419603Y-71722909D01*
X147413922Y-71713051D01*
X147405021Y-71698682D01*
X147393362Y-71680526D01*
X147379410Y-71659305D01*
X147363628Y-71635741D01*
X147347214Y-71611627D01*
X147330114Y-71586497D01*
X147314399Y-71563018D01*
X147300532Y-71541912D01*
X147288978Y-71523903D01*
X147280199Y-71509711D01*
X147274661Y-71500060D01*
X147272822Y-71495740D01*
X147274160Y-71490163D01*
X147277905Y-71478946D01*
X147283642Y-71463122D01*
X147290957Y-71443726D01*
X147299436Y-71421793D01*
X147308665Y-71398358D01*
X147318230Y-71374454D01*
X147327717Y-71351117D01*
X147336711Y-71329380D01*
X147344800Y-71310279D01*
X147351569Y-71294848D01*
X147356604Y-71284122D01*
X147359491Y-71279134D01*
X147359513Y-71279111D01*
X147364077Y-71276776D01*
X147374077Y-71273728D01*
X147389842Y-71269893D01*
X147411699Y-71265200D01*
X147439976Y-71259575D01*
X147474999Y-71252945D01*
X147486914Y-71250742D01*
X147523174Y-71244061D01*
X147552949Y-71238537D01*
X147576894Y-71234007D01*
X147595660Y-71230309D01*
X147609901Y-71227280D01*
X147620269Y-71224758D01*
X147627416Y-71222581D01*
X147631996Y-71220586D01*
X147634661Y-71218612D01*
X147636064Y-71216495D01*
X147636857Y-71214074D01*
X147637035Y-71213408D01*
X147637533Y-71208012D01*
X147637993Y-71196223D01*
X147638403Y-71178905D01*
X147638749Y-71156920D01*
X147639016Y-71131132D01*
X147639193Y-71102406D01*
X147639264Y-71071604D01*
X147639265Y-71070801D01*
X147639217Y-71033555D01*
X147639033Y-71003016D01*
X147638694Y-70978632D01*
X147638183Y-70959854D01*
X147637482Y-70946130D01*
X147636574Y-70936911D01*
X147635441Y-70931646D01*
X147634779Y-70930317D01*
X147631507Y-70928280D01*
X147624120Y-70925738D01*
X147612137Y-70922585D01*
X147595081Y-70918714D01*
X147572471Y-70914019D01*
X147543829Y-70908392D01*
X147508675Y-70901728D01*
X147494595Y-70899103D01*
X147457619Y-70892166D01*
X147427240Y-70886304D01*
X147402897Y-70881392D01*
X147384030Y-70877305D01*
X147370078Y-70873915D01*
X147360480Y-70871098D01*
X147354677Y-70868728D01*
X147352536Y-70867230D01*
X147349301Y-70862014D01*
X147343833Y-70851169D01*
X147336585Y-70835756D01*
X147328011Y-70816832D01*
X147318563Y-70795457D01*
X147308694Y-70772691D01*
X147298857Y-70749594D01*
X147289505Y-70727223D01*
X147281091Y-70706639D01*
X147274068Y-70688902D01*
X147268889Y-70675069D01*
X147266006Y-70666201D01*
X147265564Y-70663820D01*
X147267580Y-70659003D01*
X147273338Y-70648911D01*
X147282413Y-70634210D01*
X147294378Y-70615566D01*
X147308806Y-70593642D01*
X147325271Y-70569106D01*
X147342345Y-70544077D01*
X147359809Y-70518514D01*
X147375971Y-70494552D01*
X147390363Y-70472912D01*
X147402514Y-70454312D01*
X147411955Y-70439473D01*
X147418216Y-70429113D01*
X147420828Y-70423952D01*
X147420856Y-70423835D01*
X147420658Y-70420997D01*
X147418795Y-70416970D01*
X147414827Y-70411271D01*
X147408318Y-70403416D01*
X147398828Y-70392919D01*
X147385920Y-70379298D01*
X147369154Y-70362067D01*
X147348094Y-70340742D01*
X147322301Y-70314840D01*
X147321404Y-70313941D01*
X147294145Y-70286818D01*
X147270447Y-70263605D01*
X147250567Y-70244541D01*
X147234763Y-70229869D01*
X147223293Y-70219831D01*
X147216416Y-70214668D01*
X147214620Y-70214004D01*
X147210452Y-70216321D01*
X147201012Y-70222307D01*
X147186997Y-70231500D01*
X147169100Y-70243435D01*
X147148017Y-70257650D01*
X147124441Y-70273680D01*
X147099067Y-70291062D01*
X147096692Y-70292696D01*
X147071016Y-70310286D01*
X147046922Y-70326652D01*
X147025131Y-70341313D01*
X147006366Y-70353790D01*
X146991348Y-70363602D01*
X146980799Y-70370270D01*
X146975443Y-70373314D01*
X146975286Y-70373377D01*
X146971588Y-70374004D01*
X146966092Y-70373427D01*
X146958040Y-70371388D01*
X146946679Y-70367629D01*
X146931251Y-70361891D01*
X146911001Y-70353915D01*
X146885172Y-70343442D01*
X146871871Y-70337987D01*
X146847210Y-70327849D01*
X146824635Y-70318571D01*
X146805048Y-70310523D01*
X146789350Y-70304076D01*
X146778446Y-70299600D01*
X146773235Y-70297467D01*
X146773026Y-70297382D01*
X146771207Y-70296232D01*
X146769451Y-70293896D01*
X146767614Y-70289745D01*
X146765557Y-70283149D01*
X146763136Y-70273480D01*
X146760211Y-70260109D01*
X146756639Y-70242406D01*
X146752279Y-70219743D01*
X146746988Y-70191491D01*
X146740627Y-70157020D01*
X146737222Y-70138472D01*
X146730184Y-70100595D01*
X146724192Y-70069517D01*
X146719166Y-70044865D01*
X146715024Y-70026268D01*
X146711685Y-70013354D01*
X146709066Y-70005754D01*
X146707515Y-70003307D01*
X146702341Y-70002027D01*
X146690956Y-70000938D01*
X146674328Y-70000039D01*
X146653419Y-69999330D01*
X146629196Y-69998810D01*
X146602622Y-69998477D01*
X146574664Y-69998330D01*
X146546285Y-69998367D01*
G37*
X146546285Y-69998367D02*
X146518450Y-69998588D01*
X146492125Y-69998991D01*
X146468275Y-69999576D01*
X146447863Y-70000342D01*
X146431856Y-70001287D01*
X146421217Y-70002410D01*
X146416957Y-70003647D01*
X146415418Y-70008197D01*
X146412758Y-70019088D01*
X146409145Y-70035519D01*
X146404742Y-70056687D01*
X146399717Y-70081792D01*
X146394235Y-70110032D01*
X146388461Y-70140605D01*
X146387110Y-70147883D01*
X146379613Y-70187848D01*
X146373187Y-70220939D01*
X146367767Y-70247450D01*
X146363289Y-70267675D01*
X146359690Y-70281907D01*
X146356904Y-70290441D01*
X146355333Y-70293255D01*
X146350656Y-70296004D01*
X146340296Y-70300980D01*
X146325318Y-70307738D01*
X146306786Y-70315836D01*
X146285766Y-70324831D01*
X146263323Y-70334279D01*
X146240523Y-70343737D01*
X146218429Y-70352762D01*
X146198107Y-70360910D01*
X146180622Y-70367740D01*
X146167039Y-70372807D01*
X146158424Y-70375668D01*
X146156122Y-70376143D01*
X146152123Y-70374152D01*
X146142823Y-70368470D01*
X146128889Y-70359537D01*
X146110987Y-70347791D01*
X146089786Y-70333672D01*
X146065953Y-70317618D01*
X146040153Y-70300068D01*
X146031647Y-70294247D01*
X145997384Y-70270900D01*
X145968806Y-70251732D01*
X145945747Y-70236639D01*
X145928036Y-70225511D01*
X145915506Y-70218242D01*
X145907987Y-70214726D01*
X145905726Y-70214396D01*
X145901501Y-70217451D01*
X145893007Y-70224978D01*
X145880919Y-70236296D01*
X145865914Y-70250724D01*
X145848669Y-70267580D01*
X145829860Y-70286183D01*
X145810163Y-70305853D01*
X145790253Y-70325907D01*
X145770809Y-70345665D01*
X145752505Y-70364445D01*
X145736019Y-70381566D01*
X145722026Y-70396347D01*
X145711202Y-70408108D01*
X145704225Y-70416165D01*
X145701770Y-70419838D01*
X145703791Y-70423916D01*
X145709504Y-70433276D01*
X145718461Y-70447238D01*
X145730215Y-70465123D01*
X145744320Y-70486253D01*
X145760327Y-70509947D01*
X145777790Y-70535526D01*
X145781599Y-70541071D01*
X145799317Y-70566999D01*
X145815667Y-70591226D01*
X145830201Y-70613067D01*
X145842471Y-70631837D01*
X145852031Y-70646848D01*
X145858432Y-70657416D01*
X145861227Y-70662854D01*
X145861314Y-70663274D01*
X145859901Y-70668353D01*
X145855959Y-70679016D01*
X145849932Y-70694230D01*
X145842264Y-70712958D01*
X145833402Y-70734166D01*
X145823789Y-70756819D01*
X145813870Y-70779882D01*
X145804090Y-70802320D01*
X145794893Y-70823098D01*
X145786725Y-70841181D01*
X145780030Y-70855533D01*
X145775252Y-70865121D01*
X145773011Y-70868773D01*
X145768358Y-70870580D01*
X145757290Y-70873493D01*
X145740538Y-70877356D01*
X145718834Y-70882011D01*
X145692908Y-70887301D01*
X145663492Y-70893070D01*
X145632705Y-70898901D01*
X145602161Y-70904672D01*
X145573772Y-70910190D01*
X145548352Y-70915286D01*
X145526714Y-70919788D01*
X145509672Y-70923527D01*
X145498041Y-70926334D01*
X145492634Y-70928039D01*
X145492434Y-70928167D01*
X145491145Y-70932777D01*
X145490032Y-70943678D01*
X145489097Y-70959903D01*
X145488342Y-70980490D01*
X145487767Y-71004471D01*
X145487373Y-71030884D01*
X145487162Y-71058763D01*
X145487134Y-71087143D01*
X145487291Y-71115060D01*
X145487633Y-71141548D01*
X145488163Y-71165643D01*
X145488880Y-71186379D01*
X145489786Y-71202793D01*
X145490882Y-71213920D01*
X145492107Y-71218722D01*
X145495922Y-71220842D01*
X145504758Y-71223629D01*
X145518986Y-71227164D01*
X145538974Y-71231528D01*
X145565092Y-71236804D01*
X145597710Y-71243071D01*
X145629086Y-71248920D01*
X145659260Y-71254553D01*
X145687248Y-71259908D01*
X145712229Y-71264817D01*
X145733386Y-71269114D01*
X145749899Y-71272633D01*
X145760950Y-71275206D01*
X145765718Y-71276669D01*
X145765778Y-71276710D01*
X145768142Y-71280820D01*
X145772716Y-71290701D01*
X145779098Y-71305355D01*
X145786884Y-71323784D01*
X145795673Y-71344989D01*
X145805063Y-71367970D01*
X145814652Y-71391728D01*
X145824037Y-71415266D01*
X145832816Y-71437583D01*
X145840588Y-71457681D01*
X145846949Y-71474562D01*
X145851498Y-71487226D01*
X145853833Y-71494674D01*
X145854057Y-71495979D01*
X145852065Y-71500226D01*
X145846396Y-71509725D01*
X145837511Y-71523769D01*
X145825871Y-71541650D01*
X145811938Y-71562658D01*
X145796172Y-71586085D01*
X145779394Y-71610698D01*
X145762215Y-71635812D01*
X145746316Y-71659174D01*
X145732173Y-71680078D01*
X145720261Y-71697816D01*
X145711055Y-71711682D01*
X145705029Y-71720969D01*
X145702669Y-71724940D01*
X145704631Y-71728779D01*
X145711182Y-71736949D01*
X145721654Y-71748781D01*
X145735379Y-71763606D01*
X145751687Y-71780754D01*
X145769909Y-71799555D01*
X145789377Y-71819339D01*
X145809422Y-71839437D01*
X145829376Y-71859180D01*
X145848568Y-71877897D01*
X145866331Y-71894920D01*
X145881995Y-71909578D01*
X145894892Y-71921201D01*
X145904354Y-71929122D01*
X145909710Y-71932668D01*
X145910276Y-71932795D01*
X145915179Y-71930797D01*
X145925114Y-71925182D01*
X145939181Y-71916517D01*
X145956480Y-71905365D01*
X145976113Y-71892292D01*
X145991943Y-71881487D01*
X146014906Y-71865681D01*
X146038146Y-71849745D01*
X146060270Y-71834626D01*
X146079890Y-71821274D01*
X146095613Y-71810640D01*
X146101460Y-71806717D01*
X146136592Y-71783251D01*
X146191135Y-71811761D01*
X146211300Y-71822208D01*
X146226061Y-71829553D01*
X146236386Y-71834170D01*
X146243241Y-71836431D01*
X146247595Y-71836708D01*
X146250416Y-71835376D01*
X146251001Y-71834829D01*
X146253361Y-71830509D01*
X146258163Y-71820137D01*
X146265130Y-71804386D01*
X146273983Y-71783925D01*
X146284446Y-71759429D01*
X146296239Y-71731567D01*
X146309085Y-71701013D01*
X146322707Y-71668437D01*
X146336826Y-71634512D01*
X146351165Y-71599910D01*
X146365446Y-71565302D01*
X146379391Y-71531360D01*
X146392722Y-71498756D01*
X146405161Y-71468163D01*
X146416430Y-71440250D01*
X146426253Y-71415692D01*
X146434350Y-71395158D01*
X146440444Y-71379322D01*
X146444257Y-71368854D01*
X146445514Y-71364482D01*
X146443271Y-71359178D01*
X146436104Y-71352140D01*
X146423359Y-71342782D01*
X146415579Y-71337624D01*
X146400897Y-71327100D01*
X146383547Y-71313125D01*
X146365778Y-71297585D01*
X146350982Y-71283511D01*
X146335760Y-71267923D01*
X146324451Y-71255190D01*
X146315579Y-71243302D01*
X146307672Y-71230249D01*
X146299257Y-71214021D01*
X146297627Y-71210714D01*
X146285550Y-71184828D01*
X146276937Y-71162643D01*
X146271239Y-71141818D01*
X146267906Y-71120009D01*
X146266388Y-71094873D01*
X146266116Y-71076457D01*
X146266267Y-71054085D01*
X146267049Y-71036834D01*
X146268685Y-71022580D01*
X146271398Y-71009197D01*
X146274275Y-70998443D01*
X146290628Y-70954065D01*
X146312886Y-70913519D01*
X146340579Y-70877266D01*
X146373239Y-70845766D01*
X146410398Y-70819479D01*
X146451586Y-70798864D01*
X146490871Y-70785761D01*
X146519824Y-70780394D01*
X146552500Y-70777975D01*
X146586067Y-70778502D01*
X146617692Y-70781974D01*
X146636014Y-70785848D01*
X146678877Y-70800703D01*
X146718316Y-70821326D01*
X146753896Y-70847089D01*
X146785184Y-70877360D01*
X146811744Y-70911509D01*
X146833143Y-70948907D01*
X146848946Y-70988923D01*
X146858719Y-71030926D01*
X146862027Y-71074287D01*
X146859625Y-71110302D01*
X146850593Y-71155644D01*
X146835854Y-71197194D01*
X146815127Y-71235399D01*
X146788128Y-71270706D01*
X146754577Y-71303565D01*
X146721286Y-71329484D01*
X146706706Y-71340010D01*
X146694287Y-71349353D01*
X146685249Y-71356569D01*
X146680811Y-71360713D01*
X146680644Y-71360961D01*
X146680154Y-71361878D01*
X146679871Y-71363027D01*
X146679968Y-71364845D01*
X146680620Y-71367769D01*
X146681998Y-71372236D01*
X146684276Y-71378685D01*
X146687628Y-71387551D01*
X146692228Y-71399274D01*
X146698247Y-71414289D01*
X146705860Y-71433034D01*
X146715241Y-71455948D01*
X146726561Y-71483466D01*
X146739996Y-71516027D01*
X146755717Y-71554068D01*
X146773899Y-71598026D01*
X146790429Y-71637980D01*
X146810166Y-71685485D01*
X146827315Y-71726325D01*
X146841917Y-71760597D01*
X146854017Y-71788399D01*
X146863657Y-71809830D01*
X146870881Y-71824987D01*
X146875732Y-71833969D01*
X146878097Y-71836850D01*
X146883759Y-71835922D01*
X146894755Y-71831650D01*
X146910197Y-71824425D01*
X146929197Y-71814639D01*
X146932525Y-71812852D01*
X146949962Y-71803705D01*
X146965657Y-71795959D01*
X146978279Y-71790235D01*
X146986498Y-71787153D01*
X146988412Y-71786794D01*
X146993105Y-71788783D01*
X147003016Y-71794460D01*
X147017411Y-71803355D01*
X147035559Y-71814999D01*
X147056727Y-71828924D01*
X147080185Y-71844660D01*
X147102346Y-71859775D01*
X147127221Y-71876728D01*
X147150456Y-71892288D01*
X147171319Y-71905986D01*
X147189077Y-71917353D01*
X147203000Y-71925919D01*
X147212356Y-71931216D01*
X147216244Y-71932800D01*
X147220960Y-71930351D01*
X147230214Y-71922957D01*
X147244081Y-71910546D01*
X147262636Y-71893050D01*
X147285957Y-71870396D01*
X147314119Y-71842514D01*
X147322746Y-71833897D01*
X147352023Y-71804406D01*
X147376242Y-71779578D01*
X147395352Y-71759467D01*
X147409304Y-71744128D01*
X147418048Y-71733613D01*
X147421534Y-71727976D01*
X147421600Y-71727535D01*
X147419603Y-71722909D01*
X147413922Y-71713051D01*
X147405021Y-71698682D01*
X147393362Y-71680526D01*
X147379410Y-71659305D01*
X147363628Y-71635741D01*
X147347214Y-71611627D01*
X147330114Y-71586497D01*
X147314399Y-71563018D01*
X147300532Y-71541912D01*
X147288978Y-71523903D01*
X147280199Y-71509711D01*
X147274661Y-71500060D01*
X147272822Y-71495740D01*
X147274160Y-71490163D01*
X147277905Y-71478946D01*
X147283642Y-71463122D01*
X147290957Y-71443726D01*
X147299436Y-71421793D01*
X147308665Y-71398358D01*
X147318230Y-71374454D01*
X147327717Y-71351117D01*
X147336711Y-71329380D01*
X147344800Y-71310279D01*
X147351569Y-71294848D01*
X147356604Y-71284122D01*
X147359491Y-71279134D01*
X147359513Y-71279111D01*
X147364077Y-71276776D01*
X147374077Y-71273728D01*
X147389842Y-71269893D01*
X147411699Y-71265200D01*
X147439976Y-71259575D01*
X147474999Y-71252945D01*
X147486914Y-71250742D01*
X147523174Y-71244061D01*
X147552949Y-71238537D01*
X147576894Y-71234007D01*
X147595660Y-71230309D01*
X147609901Y-71227280D01*
X147620269Y-71224758D01*
X147627416Y-71222581D01*
X147631996Y-71220586D01*
X147634661Y-71218612D01*
X147636064Y-71216495D01*
X147636857Y-71214074D01*
X147637035Y-71213408D01*
X147637533Y-71208012D01*
X147637993Y-71196223D01*
X147638403Y-71178905D01*
X147638749Y-71156920D01*
X147639016Y-71131132D01*
X147639193Y-71102406D01*
X147639264Y-71071604D01*
X147639265Y-71070801D01*
X147639217Y-71033555D01*
X147639033Y-71003016D01*
X147638694Y-70978632D01*
X147638183Y-70959854D01*
X147637482Y-70946130D01*
X147636574Y-70936911D01*
X147635441Y-70931646D01*
X147634779Y-70930317D01*
X147631507Y-70928280D01*
X147624120Y-70925738D01*
X147612137Y-70922585D01*
X147595081Y-70918714D01*
X147572471Y-70914019D01*
X147543829Y-70908392D01*
X147508675Y-70901728D01*
X147494595Y-70899103D01*
X147457619Y-70892166D01*
X147427240Y-70886304D01*
X147402897Y-70881392D01*
X147384030Y-70877305D01*
X147370078Y-70873915D01*
X147360480Y-70871098D01*
X147354677Y-70868728D01*
X147352536Y-70867230D01*
X147349301Y-70862014D01*
X147343833Y-70851169D01*
X147336585Y-70835756D01*
X147328011Y-70816832D01*
X147318563Y-70795457D01*
X147308694Y-70772691D01*
X147298857Y-70749594D01*
X147289505Y-70727223D01*
X147281091Y-70706639D01*
X147274068Y-70688902D01*
X147268889Y-70675069D01*
X147266006Y-70666201D01*
X147265564Y-70663820D01*
X147267580Y-70659003D01*
X147273338Y-70648911D01*
X147282413Y-70634210D01*
X147294378Y-70615566D01*
X147308806Y-70593642D01*
X147325271Y-70569106D01*
X147342345Y-70544077D01*
X147359809Y-70518514D01*
X147375971Y-70494552D01*
X147390363Y-70472912D01*
X147402514Y-70454312D01*
X147411955Y-70439473D01*
X147418216Y-70429113D01*
X147420828Y-70423952D01*
X147420856Y-70423835D01*
X147420658Y-70420997D01*
X147418795Y-70416970D01*
X147414827Y-70411271D01*
X147408318Y-70403416D01*
X147398828Y-70392919D01*
X147385920Y-70379298D01*
X147369154Y-70362067D01*
X147348094Y-70340742D01*
X147322301Y-70314840D01*
X147321404Y-70313941D01*
X147294145Y-70286818D01*
X147270447Y-70263605D01*
X147250567Y-70244541D01*
X147234763Y-70229869D01*
X147223293Y-70219831D01*
X147216416Y-70214668D01*
X147214620Y-70214004D01*
X147210452Y-70216321D01*
X147201012Y-70222307D01*
X147186997Y-70231500D01*
X147169100Y-70243435D01*
X147148017Y-70257650D01*
X147124441Y-70273680D01*
X147099067Y-70291062D01*
X147096692Y-70292696D01*
X147071016Y-70310286D01*
X147046922Y-70326652D01*
X147025131Y-70341313D01*
X147006366Y-70353790D01*
X146991348Y-70363602D01*
X146980799Y-70370270D01*
X146975443Y-70373314D01*
X146975286Y-70373377D01*
X146971588Y-70374004D01*
X146966092Y-70373427D01*
X146958040Y-70371388D01*
X146946679Y-70367629D01*
X146931251Y-70361891D01*
X146911001Y-70353915D01*
X146885172Y-70343442D01*
X146871871Y-70337987D01*
X146847210Y-70327849D01*
X146824635Y-70318571D01*
X146805048Y-70310523D01*
X146789350Y-70304076D01*
X146778446Y-70299600D01*
X146773235Y-70297467D01*
X146773026Y-70297382D01*
X146771207Y-70296232D01*
X146769451Y-70293896D01*
X146767614Y-70289745D01*
X146765557Y-70283149D01*
X146763136Y-70273480D01*
X146760211Y-70260109D01*
X146756639Y-70242406D01*
X146752279Y-70219743D01*
X146746988Y-70191491D01*
X146740627Y-70157020D01*
X146737222Y-70138472D01*
X146730184Y-70100595D01*
X146724192Y-70069517D01*
X146719166Y-70044865D01*
X146715024Y-70026268D01*
X146711685Y-70013354D01*
X146709066Y-70005754D01*
X146707515Y-70003307D01*
X146702341Y-70002027D01*
X146690956Y-70000938D01*
X146674328Y-70000039D01*
X146653419Y-69999330D01*
X146629196Y-69998810D01*
X146602622Y-69998477D01*
X146574664Y-69998330D01*
X146546285Y-69998367D01*
G36*
X148469856Y-69982685D02*
G01*
X148458122Y-70059398D01*
X148458111Y-70059549D01*
X148449049Y-70128957D01*
X148429123Y-70162418D01*
X148389177Y-70174758D01*
X148386800Y-70175050D01*
X148326578Y-70190082D01*
X148245218Y-70219759D01*
X148202650Y-70238196D01*
X148130865Y-70274906D01*
X148094890Y-70307737D01*
X148082813Y-70350221D01*
X148082000Y-70375256D01*
X148104506Y-70457017D01*
X148164717Y-70513948D01*
X148251673Y-70535791D01*
X148253549Y-70535800D01*
X148297747Y-70544078D01*
X148321567Y-70573493D01*
X148325698Y-70630913D01*
X148310831Y-70723205D01*
X148283593Y-70834882D01*
X148255770Y-70955023D01*
X148237399Y-71074491D01*
X148226668Y-71209765D01*
X148221765Y-71377324D01*
X148221493Y-71399400D01*
X148216357Y-71584161D01*
X148204259Y-71736090D01*
X148183324Y-71872896D01*
X148160302Y-71977852D01*
X148132478Y-72087972D01*
X148110076Y-72159328D01*
X148087373Y-72202719D01*
X148058643Y-72228944D01*
X148018164Y-72248801D01*
X148016243Y-72249606D01*
X147948983Y-72291753D01*
X147929600Y-72337903D01*
X147937932Y-72372229D01*
X147971964Y-72387187D01*
X148028692Y-72390000D01*
X148095734Y-72384270D01*
X148139777Y-72358530D01*
X148181875Y-72299950D01*
X148185016Y-72294750D01*
X148225990Y-72222806D01*
X148278029Y-72126371D01*
X148328982Y-72028050D01*
X148373708Y-71945918D01*
X148412801Y-71885247D01*
X148438874Y-71857290D01*
X148441542Y-71856600D01*
X148456765Y-71878922D01*
X148462248Y-71934308D01*
X148461634Y-71951850D01*
X148458731Y-72023019D01*
X148459049Y-72074095D01*
X148459450Y-72078850D01*
X148481392Y-72101602D01*
X148523406Y-72110784D01*
X148559337Y-72103304D01*
X148566969Y-72091550D01*
X148570226Y-72056003D01*
X148575393Y-71991183D01*
X148576949Y-71970612D01*
X148595821Y-71880170D01*
X148632531Y-71788326D01*
X148640589Y-71773762D01*
X148675836Y-71723662D01*
X148716726Y-71692701D01*
X148771953Y-71680290D01*
X148850211Y-71685838D01*
X148960194Y-71708754D01*
X149091313Y-71743144D01*
X149202394Y-71772614D01*
X149277097Y-71788599D01*
X149327724Y-71792138D01*
X149366577Y-71784270D01*
X149399914Y-71769192D01*
X149480806Y-71710222D01*
X149569856Y-71617722D01*
X149655656Y-71505043D01*
X149725398Y-71388289D01*
X149764141Y-71291951D01*
X149791650Y-71183750D01*
X149805979Y-71078270D01*
X149805185Y-70990094D01*
X149787322Y-70933804D01*
X149786181Y-70932368D01*
X149737813Y-70904923D01*
X149639232Y-70878250D01*
X149491022Y-70852457D01*
X149293764Y-70827653D01*
X149143192Y-70812454D01*
X149024632Y-70799792D01*
X148922182Y-70785911D01*
X148848045Y-70772644D01*
X148816766Y-70763418D01*
X148779404Y-70718098D01*
X148759553Y-70643379D01*
X148759611Y-70558364D01*
X148781560Y-70482950D01*
X148808093Y-70418966D01*
X148818600Y-70369617D01*
X148833552Y-70321132D01*
X148869400Y-70263330D01*
X148907615Y-70196348D01*
X148919813Y-70134332D01*
X148905559Y-70090874D01*
X148875297Y-70078600D01*
X148827748Y-70092286D01*
X148761193Y-70126711D01*
X148734143Y-70144003D01*
X148663094Y-70183647D01*
X148613312Y-70184976D01*
X148576207Y-70143938D01*
X148543188Y-70056480D01*
X148542292Y-70053501D01*
X148513820Y-69979602D01*
X148489048Y-69956041D01*
X148469856Y-69982685D01*
G37*
X148469856Y-69982685D02*
X148458122Y-70059398D01*
X148458111Y-70059549D01*
X148449049Y-70128957D01*
X148429123Y-70162418D01*
X148389177Y-70174758D01*
X148386800Y-70175050D01*
X148326578Y-70190082D01*
X148245218Y-70219759D01*
X148202650Y-70238196D01*
X148130865Y-70274906D01*
X148094890Y-70307737D01*
X148082813Y-70350221D01*
X148082000Y-70375256D01*
X148104506Y-70457017D01*
X148164717Y-70513948D01*
X148251673Y-70535791D01*
X148253549Y-70535800D01*
X148297747Y-70544078D01*
X148321567Y-70573493D01*
X148325698Y-70630913D01*
X148310831Y-70723205D01*
X148283593Y-70834882D01*
X148255770Y-70955023D01*
X148237399Y-71074491D01*
X148226668Y-71209765D01*
X148221765Y-71377324D01*
X148221493Y-71399400D01*
X148216357Y-71584161D01*
X148204259Y-71736090D01*
X148183324Y-71872896D01*
X148160302Y-71977852D01*
X148132478Y-72087972D01*
X148110076Y-72159328D01*
X148087373Y-72202719D01*
X148058643Y-72228944D01*
X148018164Y-72248801D01*
X148016243Y-72249606D01*
X147948983Y-72291753D01*
X147929600Y-72337903D01*
X147937932Y-72372229D01*
X147971964Y-72387187D01*
X148028692Y-72390000D01*
X148095734Y-72384270D01*
X148139777Y-72358530D01*
X148181875Y-72299950D01*
X148185016Y-72294750D01*
X148225990Y-72222806D01*
X148278029Y-72126371D01*
X148328982Y-72028050D01*
X148373708Y-71945918D01*
X148412801Y-71885247D01*
X148438874Y-71857290D01*
X148441542Y-71856600D01*
X148456765Y-71878922D01*
X148462248Y-71934308D01*
X148461634Y-71951850D01*
X148458731Y-72023019D01*
X148459049Y-72074095D01*
X148459450Y-72078850D01*
X148481392Y-72101602D01*
X148523406Y-72110784D01*
X148559337Y-72103304D01*
X148566969Y-72091550D01*
X148570226Y-72056003D01*
X148575393Y-71991183D01*
X148576949Y-71970612D01*
X148595821Y-71880170D01*
X148632531Y-71788326D01*
X148640589Y-71773762D01*
X148675836Y-71723662D01*
X148716726Y-71692701D01*
X148771953Y-71680290D01*
X148850211Y-71685838D01*
X148960194Y-71708754D01*
X149091313Y-71743144D01*
X149202394Y-71772614D01*
X149277097Y-71788599D01*
X149327724Y-71792138D01*
X149366577Y-71784270D01*
X149399914Y-71769192D01*
X149480806Y-71710222D01*
X149569856Y-71617722D01*
X149655656Y-71505043D01*
X149725398Y-71388289D01*
X149764141Y-71291951D01*
X149791650Y-71183750D01*
X149805979Y-71078270D01*
X149805185Y-70990094D01*
X149787322Y-70933804D01*
X149786181Y-70932368D01*
X149737813Y-70904923D01*
X149639232Y-70878250D01*
X149491022Y-70852457D01*
X149293764Y-70827653D01*
X149143192Y-70812454D01*
X149024632Y-70799792D01*
X148922182Y-70785911D01*
X148848045Y-70772644D01*
X148816766Y-70763418D01*
X148779404Y-70718098D01*
X148759553Y-70643379D01*
X148759611Y-70558364D01*
X148781560Y-70482950D01*
X148808093Y-70418966D01*
X148818600Y-70369617D01*
X148833552Y-70321132D01*
X148869400Y-70263330D01*
X148907615Y-70196348D01*
X148919813Y-70134332D01*
X148905559Y-70090874D01*
X148875297Y-70078600D01*
X148827748Y-70092286D01*
X148761193Y-70126711D01*
X148734143Y-70144003D01*
X148663094Y-70183647D01*
X148613312Y-70184976D01*
X148576207Y-70143938D01*
X148543188Y-70056480D01*
X148542292Y-70053501D01*
X148513820Y-69979602D01*
X148489048Y-69956041D01*
X148469856Y-69982685D01*
%LPC*%
D13*
X151257000Y-82042000D03*
X155448000Y-67818000D03*
X147066000Y-67818000D03*
X155448000Y-82042000D03*
X147066000Y-82042000D03*
M02*
