G04 #@! TF.GenerationSoftware,KiCad,Pcbnew,(5.1.10)-1*
G04 #@! TF.CreationDate,2023-08-30T00:20:36+03:00*
G04 #@! TF.ProjectId,mini_cc_drive,6d696e69-5f63-4635-9f64-726976652e6b,rev?*
G04 #@! TF.SameCoordinates,Original*
G04 #@! TF.FileFunction,Paste,Top*
G04 #@! TF.FilePolarity,Positive*
%FSLAX46Y46*%
G04 Gerber Fmt 4.6, Leading zero omitted, Abs format (unit mm)*
G04 Created by KiCad (PCBNEW (5.1.10)-1) date 2023-08-30 00:20:36*
%MOMM*%
%LPD*%
G01*
G04 APERTURE LIST*
%ADD10R,0.650000X2.000000*%
G04 APERTURE END LIST*
G36*
G01*
X151837500Y-70475002D02*
X151837500Y-69224998D01*
G75*
G02*
X152087498Y-68975000I249998J0D01*
G01*
X152712502Y-68975000D01*
G75*
G02*
X152962500Y-69224998I0J-249998D01*
G01*
X152962500Y-70475002D01*
G75*
G02*
X152712502Y-70725000I-249998J0D01*
G01*
X152087498Y-70725000D01*
G75*
G02*
X151837500Y-70475002I0J249998D01*
G01*
G37*
G36*
G01*
X148912500Y-70475002D02*
X148912500Y-69224998D01*
G75*
G02*
X149162498Y-68975000I249998J0D01*
G01*
X149787502Y-68975000D01*
G75*
G02*
X150037500Y-69224998I0J-249998D01*
G01*
X150037500Y-70475002D01*
G75*
G02*
X149787502Y-70725000I-249998J0D01*
G01*
X149162498Y-70725000D01*
G75*
G02*
X148912500Y-70475002I0J249998D01*
G01*
G37*
D10*
X150622000Y-72331000D03*
X152522000Y-72331000D03*
X152522000Y-75751000D03*
X151572000Y-75751000D03*
X150622000Y-75751000D03*
G36*
G01*
X146021999Y-77365500D02*
X148872001Y-77365500D01*
G75*
G02*
X149122000Y-77615499I0J-249999D01*
G01*
X149122000Y-78340501D01*
G75*
G02*
X148872001Y-78590500I-249999J0D01*
G01*
X146021999Y-78590500D01*
G75*
G02*
X145772000Y-78340501I0J249999D01*
G01*
X145772000Y-77615499D01*
G75*
G02*
X146021999Y-77365500I249999J0D01*
G01*
G37*
G36*
G01*
X146021999Y-71440500D02*
X148872001Y-71440500D01*
G75*
G02*
X149122000Y-71690499I0J-249999D01*
G01*
X149122000Y-72415501D01*
G75*
G02*
X148872001Y-72665500I-249999J0D01*
G01*
X146021999Y-72665500D01*
G75*
G02*
X145772000Y-72415501I0J249999D01*
G01*
X145772000Y-71690499D01*
G75*
G02*
X146021999Y-71440500I249999J0D01*
G01*
G37*
G36*
G01*
X155957000Y-76796000D02*
X155957000Y-75096000D01*
G75*
G02*
X156207000Y-74846000I250000J0D01*
G01*
X156957000Y-74846000D01*
G75*
G02*
X157207000Y-75096000I0J-250000D01*
G01*
X157207000Y-76796000D01*
G75*
G02*
X156957000Y-77046000I-250000J0D01*
G01*
X156207000Y-77046000D01*
G75*
G02*
X155957000Y-76796000I0J250000D01*
G01*
G37*
G36*
G01*
X153807000Y-76796000D02*
X153807000Y-75096000D01*
G75*
G02*
X154057000Y-74846000I250000J0D01*
G01*
X154807000Y-74846000D01*
G75*
G02*
X155057000Y-75096000I0J-250000D01*
G01*
X155057000Y-76796000D01*
G75*
G02*
X154807000Y-77046000I-250000J0D01*
G01*
X154057000Y-77046000D01*
G75*
G02*
X153807000Y-76796000I0J250000D01*
G01*
G37*
G36*
G01*
X154167000Y-78089999D02*
X154167000Y-79390001D01*
G75*
G02*
X153917001Y-79640000I-249999J0D01*
G01*
X153266999Y-79640000D01*
G75*
G02*
X153017000Y-79390001I0J249999D01*
G01*
X153017000Y-78089999D01*
G75*
G02*
X153266999Y-77840000I249999J0D01*
G01*
X153917001Y-77840000D01*
G75*
G02*
X154167000Y-78089999I0J-249999D01*
G01*
G37*
G36*
G01*
X157117000Y-78089999D02*
X157117000Y-79390001D01*
G75*
G02*
X156867001Y-79640000I-249999J0D01*
G01*
X156216999Y-79640000D01*
G75*
G02*
X155967000Y-79390001I0J249999D01*
G01*
X155967000Y-78089999D01*
G75*
G02*
X156216999Y-77840000I249999J0D01*
G01*
X156867001Y-77840000D01*
G75*
G02*
X157117000Y-78089999I0J-249999D01*
G01*
G37*
G36*
G01*
X154035999Y-72733000D02*
X155336001Y-72733000D01*
G75*
G02*
X155586000Y-72982999I0J-249999D01*
G01*
X155586000Y-73633001D01*
G75*
G02*
X155336001Y-73883000I-249999J0D01*
G01*
X154035999Y-73883000D01*
G75*
G02*
X153786000Y-73633001I0J249999D01*
G01*
X153786000Y-72982999D01*
G75*
G02*
X154035999Y-72733000I249999J0D01*
G01*
G37*
G36*
G01*
X154035999Y-69783000D02*
X155336001Y-69783000D01*
G75*
G02*
X155586000Y-70032999I0J-249999D01*
G01*
X155586000Y-70683001D01*
G75*
G02*
X155336001Y-70933000I-249999J0D01*
G01*
X154035999Y-70933000D01*
G75*
G02*
X153786000Y-70683001I0J249999D01*
G01*
X153786000Y-70032999D01*
G75*
G02*
X154035999Y-69783000I249999J0D01*
G01*
G37*
M02*
