G04 #@! TF.GenerationSoftware,KiCad,Pcbnew,(5.1.10)-1*
G04 #@! TF.CreationDate,2023-08-30T00:20:36+03:00*
G04 #@! TF.ProjectId,mini_cc_drive,6d696e69-5f63-4635-9f64-726976652e6b,rev?*
G04 #@! TF.SameCoordinates,Original*
G04 #@! TF.FileFunction,Legend,Top*
G04 #@! TF.FilePolarity,Positive*
%FSLAX46Y46*%
G04 Gerber Fmt 4.6, Leading zero omitted, Abs format (unit mm)*
G04 Created by KiCad (PCBNEW (5.1.10)-1) date 2023-08-30 00:20:36*
%MOMM*%
%LPD*%
G01*
G04 APERTURE LIST*
%ADD10C,0.100000*%
%ADD11C,0.120000*%
%ADD12R,1.700000X1.700000*%
%ADD13R,0.650000X2.000000*%
G04 APERTURE END LIST*
D10*
X151697619Y-80871190D02*
X151697619Y-80371190D01*
X151888095Y-80371190D01*
X151935714Y-80395000D01*
X151959523Y-80418809D01*
X151983333Y-80466428D01*
X151983333Y-80537857D01*
X151959523Y-80585476D01*
X151935714Y-80609285D01*
X151888095Y-80633095D01*
X151697619Y-80633095D01*
X152150000Y-80371190D02*
X152269047Y-80871190D01*
X152364285Y-80514047D01*
X152459523Y-80871190D01*
X152578571Y-80371190D01*
X152769047Y-80871190D02*
X152769047Y-80371190D01*
X152935714Y-80728333D01*
X153102380Y-80371190D01*
X153102380Y-80871190D01*
X148113809Y-80371190D02*
X148280476Y-80871190D01*
X148447142Y-80371190D01*
X148613809Y-80680714D02*
X148994761Y-80680714D01*
X148804285Y-80871190D02*
X148804285Y-80490238D01*
X155860809Y-80371190D02*
X156027476Y-80871190D01*
X156194142Y-80371190D01*
X156360809Y-80680714D02*
X156741761Y-80680714D01*
X147641523Y-66647190D02*
X147641523Y-66147190D01*
X147927238Y-66647190D02*
X147712952Y-66361476D01*
X147927238Y-66147190D02*
X147641523Y-66432904D01*
X148141523Y-66456714D02*
X148522476Y-66456714D01*
X156035428Y-66504333D02*
X156273523Y-66504333D01*
X155987809Y-66647190D02*
X156154476Y-66147190D01*
X156321142Y-66647190D01*
X156487809Y-66456714D02*
X156868761Y-66456714D01*
X156678285Y-66647190D02*
X156678285Y-66266238D01*
D11*
X149927000Y-80712000D02*
X151257000Y-80712000D01*
X149927000Y-82042000D02*
X149927000Y-80712000D01*
X149927000Y-83312000D02*
X152587000Y-83312000D01*
X152587000Y-83312000D02*
X152587000Y-83372000D01*
X149927000Y-83312000D02*
X149927000Y-83372000D01*
X149927000Y-83372000D02*
X152587000Y-83372000D01*
X154118000Y-66488000D02*
X155448000Y-66488000D01*
X154118000Y-67818000D02*
X154118000Y-66488000D01*
X154118000Y-69088000D02*
X156778000Y-69088000D01*
X156778000Y-69088000D02*
X156778000Y-69148000D01*
X154118000Y-69088000D02*
X154118000Y-69148000D01*
X154118000Y-69148000D02*
X156778000Y-69148000D01*
X145736000Y-66488000D02*
X147066000Y-66488000D01*
X145736000Y-67818000D02*
X145736000Y-66488000D01*
X145736000Y-69088000D02*
X148396000Y-69088000D01*
X148396000Y-69088000D02*
X148396000Y-69148000D01*
X145736000Y-69088000D02*
X145736000Y-69148000D01*
X145736000Y-69148000D02*
X148396000Y-69148000D01*
X154118000Y-80712000D02*
X155448000Y-80712000D01*
X154118000Y-82042000D02*
X154118000Y-80712000D01*
X154118000Y-83312000D02*
X156778000Y-83312000D01*
X156778000Y-83312000D02*
X156778000Y-83372000D01*
X154118000Y-83312000D02*
X154118000Y-83372000D01*
X154118000Y-83372000D02*
X156778000Y-83372000D01*
X145736000Y-80712000D02*
X147066000Y-80712000D01*
X145736000Y-82042000D02*
X145736000Y-80712000D01*
X145736000Y-83312000D02*
X148396000Y-83312000D01*
X148396000Y-83312000D02*
X148396000Y-83372000D01*
X145736000Y-83312000D02*
X145736000Y-83372000D01*
X145736000Y-83372000D02*
X148396000Y-83372000D01*
X150210436Y-70760000D02*
X151664564Y-70760000D01*
X150210436Y-68940000D02*
X151664564Y-68940000D01*
X150062000Y-73161000D02*
X150062000Y-75591000D01*
X153132000Y-74921000D02*
X153132000Y-73161000D01*
X145737000Y-72838436D02*
X145737000Y-77192564D01*
X149157000Y-72838436D02*
X149157000Y-77192564D01*
X155245748Y-77056000D02*
X155768252Y-77056000D01*
X155245748Y-74836000D02*
X155768252Y-74836000D01*
X155778252Y-77830000D02*
X154355748Y-77830000D01*
X155778252Y-79650000D02*
X154355748Y-79650000D01*
X153776000Y-71121748D02*
X153776000Y-72544252D01*
X155596000Y-71121748D02*
X155596000Y-72544252D01*
X149726666Y-68433904D02*
X149460000Y-68052952D01*
X149269523Y-68433904D02*
X149269523Y-67633904D01*
X149574285Y-67633904D01*
X149650476Y-67672000D01*
X149688571Y-67710095D01*
X149726666Y-67786285D01*
X149726666Y-67900571D01*
X149688571Y-67976761D01*
X149650476Y-68014857D01*
X149574285Y-68052952D01*
X149269523Y-68052952D01*
X150031428Y-67710095D02*
X150069523Y-67672000D01*
X150145714Y-67633904D01*
X150336190Y-67633904D01*
X150412380Y-67672000D01*
X150450476Y-67710095D01*
X150488571Y-67786285D01*
X150488571Y-67862476D01*
X150450476Y-67976761D01*
X149993333Y-68433904D01*
X150488571Y-68433904D01*
X151536476Y-77158904D02*
X151536476Y-77806523D01*
X151574571Y-77882714D01*
X151612666Y-77920809D01*
X151688857Y-77958904D01*
X151841238Y-77958904D01*
X151917428Y-77920809D01*
X151955523Y-77882714D01*
X151993619Y-77806523D01*
X151993619Y-77158904D01*
X152793619Y-77958904D02*
X152336476Y-77958904D01*
X152565047Y-77958904D02*
X152565047Y-77158904D01*
X152488857Y-77273190D01*
X152412666Y-77349380D01*
X152336476Y-77387476D01*
X147313666Y-71100904D02*
X147047000Y-70719952D01*
X146856523Y-71100904D02*
X146856523Y-70300904D01*
X147161285Y-70300904D01*
X147237476Y-70339000D01*
X147275571Y-70377095D01*
X147313666Y-70453285D01*
X147313666Y-70567571D01*
X147275571Y-70643761D01*
X147237476Y-70681857D01*
X147161285Y-70719952D01*
X146856523Y-70719952D01*
X148075571Y-71100904D02*
X147618428Y-71100904D01*
X147847000Y-71100904D02*
X147847000Y-70300904D01*
X147770809Y-70415190D01*
X147694619Y-70491380D01*
X147618428Y-70529476D01*
X156457666Y-74402904D02*
X156076714Y-74402904D01*
X156076714Y-73602904D01*
X157143380Y-74402904D02*
X156686238Y-74402904D01*
X156914809Y-74402904D02*
X156914809Y-73602904D01*
X156838619Y-73717190D01*
X156762428Y-73793380D01*
X156686238Y-73831476D01*
X151885666Y-79279714D02*
X151847571Y-79317809D01*
X151733285Y-79355904D01*
X151657095Y-79355904D01*
X151542809Y-79317809D01*
X151466619Y-79241619D01*
X151428523Y-79165428D01*
X151390428Y-79013047D01*
X151390428Y-78898761D01*
X151428523Y-78746380D01*
X151466619Y-78670190D01*
X151542809Y-78594000D01*
X151657095Y-78555904D01*
X151733285Y-78555904D01*
X151847571Y-78594000D01*
X151885666Y-78632095D01*
X152190428Y-78632095D02*
X152228523Y-78594000D01*
X152304714Y-78555904D01*
X152495190Y-78555904D01*
X152571380Y-78594000D01*
X152609476Y-78632095D01*
X152647571Y-78708285D01*
X152647571Y-78784476D01*
X152609476Y-78898761D01*
X152152333Y-79355904D01*
X152647571Y-79355904D01*
X156330666Y-72040714D02*
X156292571Y-72078809D01*
X156178285Y-72116904D01*
X156102095Y-72116904D01*
X155987809Y-72078809D01*
X155911619Y-72002619D01*
X155873523Y-71926428D01*
X155835428Y-71774047D01*
X155835428Y-71659761D01*
X155873523Y-71507380D01*
X155911619Y-71431190D01*
X155987809Y-71355000D01*
X156102095Y-71316904D01*
X156178285Y-71316904D01*
X156292571Y-71355000D01*
X156330666Y-71393095D01*
X157092571Y-72116904D02*
X156635428Y-72116904D01*
X156864000Y-72116904D02*
X156864000Y-71316904D01*
X156787809Y-71431190D01*
X156711619Y-71507380D01*
X156635428Y-71545476D01*
%LPC*%
D12*
X151257000Y-82042000D03*
X155448000Y-67818000D03*
X147066000Y-67818000D03*
X155448000Y-82042000D03*
X147066000Y-82042000D03*
G36*
G01*
X151837500Y-70475002D02*
X151837500Y-69224998D01*
G75*
G02*
X152087498Y-68975000I249998J0D01*
G01*
X152712502Y-68975000D01*
G75*
G02*
X152962500Y-69224998I0J-249998D01*
G01*
X152962500Y-70475002D01*
G75*
G02*
X152712502Y-70725000I-249998J0D01*
G01*
X152087498Y-70725000D01*
G75*
G02*
X151837500Y-70475002I0J249998D01*
G01*
G37*
G36*
G01*
X148912500Y-70475002D02*
X148912500Y-69224998D01*
G75*
G02*
X149162498Y-68975000I249998J0D01*
G01*
X149787502Y-68975000D01*
G75*
G02*
X150037500Y-69224998I0J-249998D01*
G01*
X150037500Y-70475002D01*
G75*
G02*
X149787502Y-70725000I-249998J0D01*
G01*
X149162498Y-70725000D01*
G75*
G02*
X148912500Y-70475002I0J249998D01*
G01*
G37*
D13*
X150622000Y-72331000D03*
X152522000Y-72331000D03*
X152522000Y-75751000D03*
X151572000Y-75751000D03*
X150622000Y-75751000D03*
G36*
G01*
X146021999Y-77365500D02*
X148872001Y-77365500D01*
G75*
G02*
X149122000Y-77615499I0J-249999D01*
G01*
X149122000Y-78340501D01*
G75*
G02*
X148872001Y-78590500I-249999J0D01*
G01*
X146021999Y-78590500D01*
G75*
G02*
X145772000Y-78340501I0J249999D01*
G01*
X145772000Y-77615499D01*
G75*
G02*
X146021999Y-77365500I249999J0D01*
G01*
G37*
G36*
G01*
X146021999Y-71440500D02*
X148872001Y-71440500D01*
G75*
G02*
X149122000Y-71690499I0J-249999D01*
G01*
X149122000Y-72415501D01*
G75*
G02*
X148872001Y-72665500I-249999J0D01*
G01*
X146021999Y-72665500D01*
G75*
G02*
X145772000Y-72415501I0J249999D01*
G01*
X145772000Y-71690499D01*
G75*
G02*
X146021999Y-71440500I249999J0D01*
G01*
G37*
G36*
G01*
X155957000Y-76796000D02*
X155957000Y-75096000D01*
G75*
G02*
X156207000Y-74846000I250000J0D01*
G01*
X156957000Y-74846000D01*
G75*
G02*
X157207000Y-75096000I0J-250000D01*
G01*
X157207000Y-76796000D01*
G75*
G02*
X156957000Y-77046000I-250000J0D01*
G01*
X156207000Y-77046000D01*
G75*
G02*
X155957000Y-76796000I0J250000D01*
G01*
G37*
G36*
G01*
X153807000Y-76796000D02*
X153807000Y-75096000D01*
G75*
G02*
X154057000Y-74846000I250000J0D01*
G01*
X154807000Y-74846000D01*
G75*
G02*
X155057000Y-75096000I0J-250000D01*
G01*
X155057000Y-76796000D01*
G75*
G02*
X154807000Y-77046000I-250000J0D01*
G01*
X154057000Y-77046000D01*
G75*
G02*
X153807000Y-76796000I0J250000D01*
G01*
G37*
G36*
G01*
X154167000Y-78089999D02*
X154167000Y-79390001D01*
G75*
G02*
X153917001Y-79640000I-249999J0D01*
G01*
X153266999Y-79640000D01*
G75*
G02*
X153017000Y-79390001I0J249999D01*
G01*
X153017000Y-78089999D01*
G75*
G02*
X153266999Y-77840000I249999J0D01*
G01*
X153917001Y-77840000D01*
G75*
G02*
X154167000Y-78089999I0J-249999D01*
G01*
G37*
G36*
G01*
X157117000Y-78089999D02*
X157117000Y-79390001D01*
G75*
G02*
X156867001Y-79640000I-249999J0D01*
G01*
X156216999Y-79640000D01*
G75*
G02*
X155967000Y-79390001I0J249999D01*
G01*
X155967000Y-78089999D01*
G75*
G02*
X156216999Y-77840000I249999J0D01*
G01*
X156867001Y-77840000D01*
G75*
G02*
X157117000Y-78089999I0J-249999D01*
G01*
G37*
G36*
G01*
X154035999Y-72733000D02*
X155336001Y-72733000D01*
G75*
G02*
X155586000Y-72982999I0J-249999D01*
G01*
X155586000Y-73633001D01*
G75*
G02*
X155336001Y-73883000I-249999J0D01*
G01*
X154035999Y-73883000D01*
G75*
G02*
X153786000Y-73633001I0J249999D01*
G01*
X153786000Y-72982999D01*
G75*
G02*
X154035999Y-72733000I249999J0D01*
G01*
G37*
G36*
G01*
X154035999Y-69783000D02*
X155336001Y-69783000D01*
G75*
G02*
X155586000Y-70032999I0J-249999D01*
G01*
X155586000Y-70683001D01*
G75*
G02*
X155336001Y-70933000I-249999J0D01*
G01*
X154035999Y-70933000D01*
G75*
G02*
X153786000Y-70683001I0J249999D01*
G01*
X153786000Y-70032999D01*
G75*
G02*
X154035999Y-69783000I249999J0D01*
G01*
G37*
M02*
